<svg width="20" height="20" viewBox="0 0 20 20" fill="none" xmlns="http://www.w3.org/2000/svg">
  <path d="M13.25 18V19.0625C13.25 19.3041 13.0541 19.5 12.8125 19.5H2.1875C1.94587 19.5 1.75 19.3041 1.75 19.0625V4.6875C1.75 4.44587 1.94587 4.25 2.1875 4.25H4.5V15.3125C4.5 16.7949 5.70515 18 7.1875 18H13.25ZM7.1875 0.5H13.25V4.0625C13.25 4.85427 13.8957 5.5 14.6875 5.5H18.25V15.3125C18.25 15.5541 18.0541 15.75 17.8125 15.75H7.1875C6.94587 15.75 6.75 15.5541 6.75 15.3125V0.9375C6.75 0.695869 6.94587 0.5 7.1875 0.5ZM15.5 0.588119C15.5162 0.6003 15.5315 0.613657 15.546 0.628133L18.1219 3.20398C18.1364 3.21846 18.1497 3.23384 18.1619 3.25H15.5V0.588119Z" stroke="#505050"/>
</svg>